<svg width="236" height="49" viewBox="0 0 236 49" fill="none" xmlns="http://www.w3.org/2000/svg">
<path d="M30.3072 33.0391C31.9213 32.8718 33.1459 31.4785 33.0902 29.8063C33.0346 28.1342 31.643 26.7965 29.9732 26.7965H29.8619C28.1363 26.8523 26.8005 28.3014 26.8562 30.0292C26.9119 30.8653 27.2457 31.5899 27.7467 32.0915C25.8543 35.826 22.9599 38.557 18.6184 40.8423C15.6683 42.4029 12.607 42.9603 9.54574 42.5702C7.04094 42.2358 5.0928 41.1211 3.86808 39.2816C2.08705 36.5505 1.92012 33.5964 3.42299 30.6424C4.48061 28.5243 6.15025 26.9637 7.20787 26.1833C6.98524 25.4588 6.65121 24.2326 6.48428 23.3409C-1.5866 29.1933 -0.751612 37.1079 1.69749 40.8423C3.53422 43.6293 7.26357 45.3571 11.3825 45.3571C12.4956 45.3571 13.6088 45.2455 14.7221 44.967C21.8468 43.5735 27.2459 39.3374 30.3072 33.0391ZM40.1036 26.1277C35.8733 21.1671 29.6393 18.436 22.5146 18.436H21.6241C21.1232 17.4327 20.0656 16.7638 18.8967 16.7638H18.7853C17.06 16.8196 15.7242 18.2687 15.7797 19.9967C15.8354 21.6687 17.2269 23.0064 18.8967 23.0064H19.0079C20.2325 22.9506 21.2901 22.1703 21.7354 21.1113H22.7373C26.9676 21.1113 30.9751 22.3375 34.5932 24.7342C37.3762 26.5736 39.38 28.9703 40.4932 31.8686C41.4394 34.2095 41.3837 36.4948 40.3818 38.4457C38.8233 41.3997 36.2073 43.0161 32.7563 43.0161C30.5298 43.0161 28.4148 42.3471 27.3014 41.8455C26.6893 42.4029 25.5759 43.2946 24.7966 43.8522C27.1902 44.9668 29.6393 45.58 31.977 45.58C37.3205 45.58 41.2724 42.6258 42.7753 39.6718C44.3894 36.439 44.278 30.8653 40.1036 26.1277ZM11.8277 33.9864C11.8834 35.6587 13.2749 36.9962 14.9447 36.9962H15.0561C16.7816 36.9406 18.1174 35.4913 18.0617 33.7635C18.0062 32.0913 16.6145 30.7538 14.9447 30.7538H14.8335C14.7221 30.7538 14.555 30.7538 14.4439 30.8094C12.1618 27.0193 11.2155 22.8949 11.5496 18.4358C11.772 15.0916 12.8854 12.1932 14.8335 9.79643C16.4476 7.73415 19.5646 6.73089 21.6798 6.67529C27.5798 6.56374 30.0844 13.921 30.2515 16.8752C30.9751 17.0423 32.1996 17.4326 33.0346 17.7113C32.3666 8.68197 26.8005 4 21.4572 4C16.4476 4 11.8277 7.62294 9.99083 12.9737C7.4305 20.108 9.10031 26.9637 12.2173 32.3702C11.9391 32.7603 11.772 33.3733 11.8277 33.9864Z" fill="#FF52D9"/>
<path d="M61.728 12.296C64.056 12.296 65.976 12.584 67.488 13.16C69 13.712 70.128 14.564 70.872 15.716C71.616 16.844 71.988 18.272 71.988 20C71.988 21.176 71.76 22.208 71.304 23.096C70.872 23.96 70.284 24.704 69.54 25.328C68.82 25.928 68.04 26.42 67.2 26.804L74.76 38H68.712L62.592 28.136H59.676V38H54.24V12.296H61.728ZM61.332 16.76H59.676V23.708H61.44C62.64 23.708 63.612 23.576 64.356 23.312C65.1 23.048 65.64 22.652 65.976 22.124C66.312 21.572 66.48 20.912 66.48 20.144C66.48 19.328 66.288 18.68 65.904 18.2C65.544 17.696 64.98 17.336 64.212 17.12C63.468 16.88 62.508 16.76 61.332 16.76ZM85.6736 17.984C87.4976 17.984 89.0576 18.332 90.3536 19.028C91.6736 19.724 92.6936 20.732 93.4136 22.052C94.1336 23.372 94.4936 24.992 94.4936 26.912V29.504H81.8216C81.8696 31.016 82.3136 32.204 83.1536 33.068C84.0176 33.932 85.2056 34.364 86.7176 34.364C87.9896 34.364 89.1416 34.244 90.1736 34.004C91.2056 33.74 92.2736 33.344 93.3776 32.816V36.956C92.4176 37.436 91.3976 37.784 90.3176 38C89.2616 38.24 87.9776 38.36 86.4656 38.36C84.4976 38.36 82.7576 38 81.2456 37.28C79.7336 36.536 78.5456 35.42 77.6816 33.932C76.8176 32.444 76.3856 30.572 76.3856 28.316C76.3856 26.012 76.7696 24.104 77.5376 22.592C78.3296 21.056 79.4216 19.904 80.8136 19.136C82.2056 18.368 83.8256 17.984 85.6736 17.984ZM85.7096 21.8C84.6776 21.8 83.8136 22.136 83.1176 22.808C82.4456 23.48 82.0496 24.524 81.9296 25.94H89.4536C89.4536 25.148 89.3096 24.44 89.0216 23.816C88.7576 23.192 88.3496 22.7 87.7976 22.34C87.2456 21.98 86.5496 21.8 85.7096 21.8ZM105.071 38.36C102.887 38.36 101.099 37.508 99.7072 35.804C98.3392 34.076 97.6552 31.544 97.6552 28.208C97.6552 24.848 98.3512 22.304 99.7432 20.576C101.135 18.848 102.959 17.984 105.215 17.984C106.151 17.984 106.979 18.116 107.699 18.38C108.419 18.62 109.031 18.956 109.535 19.388C110.063 19.82 110.507 20.312 110.867 20.864H111.047C110.975 20.48 110.891 19.928 110.795 19.208C110.699 18.464 110.651 17.708 110.651 16.94V10.64H116.015V38H111.911L110.867 35.444H110.651C110.315 35.972 109.883 36.464 109.355 36.92C108.851 37.352 108.251 37.7 107.555 37.964C106.859 38.228 106.031 38.36 105.071 38.36ZM106.943 34.076C108.431 34.076 109.475 33.644 110.075 32.78C110.675 31.892 110.987 30.572 111.011 28.82V28.244C111.011 26.324 110.711 24.86 110.111 23.852C109.535 22.844 108.455 22.34 106.871 22.34C105.695 22.34 104.771 22.856 104.099 23.888C103.427 24.896 103.091 26.36 103.091 28.28C103.091 30.2 103.427 31.652 104.099 32.636C104.771 33.596 105.719 34.076 106.943 34.076ZM139.66 18.344V38H135.556L134.836 35.48H134.548C134.14 36.152 133.612 36.704 132.964 37.136C132.34 37.544 131.644 37.844 130.876 38.036C130.108 38.252 129.316 38.36 128.5 38.36C127.108 38.36 125.884 38.108 124.828 37.604C123.772 37.1 122.956 36.32 122.38 35.264C121.804 34.208 121.516 32.84 121.516 31.16V18.344H126.88V29.828C126.88 31.22 127.132 32.276 127.636 32.996C128.14 33.716 128.944 34.076 130.048 34.076C131.152 34.076 132.004 33.824 132.604 33.32C133.228 32.816 133.66 32.084 133.9 31.124C134.164 30.164 134.296 28.988 134.296 27.596V18.344H139.66ZM149.317 27.956L142.981 18.344H149.065L152.881 24.608L156.733 18.344H162.817L156.409 27.956L163.105 38H157.021L152.881 31.268L148.741 38H142.657L149.317 27.956ZM174.377 34.076C174.977 34.076 175.553 34.016 176.105 33.896C176.657 33.776 177.209 33.632 177.761 33.464V37.46C177.185 37.7 176.465 37.904 175.601 38.072C174.761 38.264 173.837 38.36 172.829 38.36C171.653 38.36 170.597 38.168 169.661 37.784C168.749 37.4 168.017 36.74 167.465 35.804C166.937 34.844 166.673 33.524 166.673 31.844V22.376H164.117V20.108L167.069 18.308L168.617 14.168H172.037V18.344H177.545V22.376H172.037V31.844C172.037 32.588 172.253 33.152 172.685 33.536C173.117 33.896 173.681 34.076 174.377 34.076ZM187.07 18.344V38H181.706V18.344H187.07ZM184.406 10.64C185.198 10.64 185.882 10.832 186.458 11.216C187.034 11.576 187.322 12.26 187.322 13.268C187.322 14.252 187.034 14.936 186.458 15.32C185.882 15.704 185.198 15.896 184.406 15.896C183.59 15.896 182.894 15.704 182.318 15.32C181.766 14.936 181.49 14.252 181.49 13.268C181.49 12.26 181.766 11.576 182.318 11.216C182.894 10.832 183.59 10.64 184.406 10.64ZM210.531 28.136C210.531 29.768 210.303 31.22 209.847 32.492C209.415 33.764 208.779 34.844 207.939 35.732C207.123 36.596 206.127 37.256 204.951 37.712C203.775 38.144 202.443 38.36 200.955 38.36C199.587 38.36 198.315 38.144 197.139 37.712C195.987 37.256 194.991 36.596 194.151 35.732C193.311 34.844 192.651 33.764 192.171 32.492C191.715 31.22 191.487 29.768 191.487 28.136C191.487 25.952 191.871 24.116 192.639 22.628C193.407 21.116 194.511 19.964 195.951 19.172C197.391 18.38 199.095 17.984 201.063 17.984C202.911 17.984 204.543 18.38 205.959 19.172C207.375 19.964 208.491 21.116 209.307 22.628C210.123 24.116 210.531 25.952 210.531 28.136ZM196.959 28.136C196.959 29.432 197.091 30.524 197.355 31.412C197.643 32.276 198.087 32.936 198.687 33.392C199.287 33.824 200.067 34.04 201.027 34.04C201.987 34.04 202.755 33.824 203.331 33.392C203.931 32.936 204.363 32.276 204.627 31.412C204.915 30.524 205.059 29.432 205.059 28.136C205.059 26.84 204.915 25.76 204.627 24.896C204.363 24.032 203.931 23.384 203.331 22.952C202.731 22.52 201.951 22.304 200.991 22.304C199.575 22.304 198.543 22.796 197.895 23.78C197.271 24.74 196.959 26.192 196.959 28.136ZM226.124 17.984C228.236 17.984 229.928 18.56 231.2 19.712C232.472 20.84 233.108 22.664 233.108 25.184V38H227.744V26.516C227.744 25.1 227.492 24.044 226.988 23.348C226.484 22.628 225.68 22.268 224.576 22.268C222.944 22.268 221.828 22.832 221.228 23.96C220.628 25.064 220.328 26.66 220.328 28.748V38H214.964V18.344H219.068L219.788 20.864H220.076C220.508 20.192 221.036 19.652 221.66 19.244C222.284 18.812 222.98 18.5 223.748 18.308C224.516 18.092 225.308 17.984 226.124 17.984Z" fill="#FF52D9"/>
</svg>
